<svg width="2040" height="1259" viewBox="0 0 2040 1259" fill="none" xmlns="http://www.w3.org/2000/svg">
<path d="M552.173 672.998C576.597 594.752 616.825 204.027 491.672 77.0408C470.661 55.7217 444.421 39.2207 415.492 27.0593C272.106 -33.2179 62.6508 13.1119 96.2503 107.781L0 827.148C65.0112 861.404 216.816 928.773 303.948 924.206C391.08 919.638 527.748 751.244 552.173 672.998Z" fill="#FFB1A0"/>
<path d="M598.946 275.95C568.552 268.136 549.034 328.047 543.074 358.979V532.364C543.074 512.827 554.249 559.226 587.772 549.458C621.295 539.69 659.288 402.936 661.522 358.979C663.757 315.023 636.939 285.718 598.946 275.95Z" fill="#FFB1A0"/>
<path d="M569.893 368.747C572.872 344.327 585.09 299.394 610.12 315.023C641.409 334.559 652.583 356.537 641.409 383.4M569.893 434.072C577.156 428.577 593.96 431.087 582.743 459.103C574.921 478.639 602.857 487.797 606.768 463.376" stroke="#EE8C76" stroke-width="9" stroke-linecap="round"/>
<path d="M593.525 461.553C651.042 454.704 713.062 378.677 759.262 421.172C779.878 440.134 744.592 501.154 763.187 524.432C776.769 541.434 832.244 586.113 834.762 607.261C837.907 633.664 848.991 669.366 823.916 688.922C803.766 704.637 752.623 706.218 729.683 697.034C706.132 687.605 680.256 659.551 694.095 631.188C718.095 581.999 768.154 575.965 815.298 570.351C826.959 568.963 851.091 561.072 862.097 567.649C874.108 574.824 885.838 598.792 891.243 611.538C904.078 641.805 910.205 682.499 889.786 709.781C878.253 725.191 858.726 724.202 841.314 726.556C818.652 729.62 797.882 740.838 775.737 746.325C750.91 752.476 723.63 753.487 698.255 756.509C644.131 762.954 594.527 831.523 600.875 884.831C606.242 929.898 618.629 984.084 666.704 1003.77C694.393 1015.1 721.215 1016.41 750.555 1012.92C793.832 1007.76 852.625 1010.2 883.416 973.654C902.038 951.554 887.736 909.073 878.033 886.271C858.966 841.463 821.606 845.579 779.02 850.223C740.508 854.423 676.069 850.085 642.429 872.229C608.003 894.891 606.419 943.128 614.996 979.306C633.959 1059.29 719.761 1067.67 789.64 1059.93C812.734 1057.37 830.952 1047.93 820.649 1077.28C803.054 1127.42 777.204 1158.22 723.819 1172.05C684.681 1182.19 642.828 1172.71 609.52 1150.26C578.423 1129.31 538.878 1098.12 521.759 1064.08C499.298 1019.42 488.612 955.129 498.668 906.331C509.514 853.697 587.317 842.309 630.007 840.221C713.454 836.14 824.005 851.411 887.367 912.428C926.652 950.258 955.474 1019.38 945.875 1074.33C938.07 1119.01 884.565 1138.51 845.472 1145.13C806.698 1151.69 767.608 1132.4 740.5 1105.25C721.789 1086.5 730.559 1039.45 740.38 1019.87C782.952 934.964 896.639 896.759 986.031 897.33C1032.7 897.628 1091.81 913.035 1116.88 955.659C1136.87 989.643 1170.83 1070.73 1141.63 1107.23C1089.64 1172.2 871.584 1176.99 881.745 1058.05C887.281 993.25 966.675 956.227 1018.51 935.082C1071.79 913.348 1142.94 883.994 1190.39 930.163C1223.55 962.433 1259.75 998.897 1286.78 1036.61C1302.75 1058.89 1281.82 1070.38 1265.25 1080.79C1255.06 1087.19 1251.18 1088.17 1243.68 1076.42C1226.53 1049.57 1228.05 1021.47 1253.52 1000.38C1297.64 963.863 1353.36 942.79 1409.52 934.446C1449.93 928.441 1457.56 943.192 1481.1 977.11C1498.66 1002.42 1514.51 1028.08 1528.25 1055.69C1531.39 1062.02 1554.01 1097.17 1550.87 1107.06C1545.61 1123.58 1510.15 1127.73 1497.27 1128.99C1463.94 1132.24 1435.2 1121.7 1408.24 1102.51C1371.51 1076.36 1298.31 998.377 1342.57 946.723C1375.98 907.735 1432.66 896.809 1480.95 891.496C1518.61 887.352 1622.5 875.823 1631.08 931.024C1638.11 976.221 1634.11 1032.17 1594.5 1061.68C1509.95 1124.65 1360.59 1079.67 1283.34 1025.77C1241.97 996.918 1171.7 929.443 1182.39 871.077C1188.72 836.529 1236.28 800.555 1264.33 783.82C1295.5 765.222 1331.03 752.295 1367.49 750.248C1390.66 748.947 1396.73 816.99 1399.23 834.013C1404.94 872.819 1389.6 910.782 1353.45 929.641C1332.71 940.464 1291.66 952.966 1271.76 934.585C1229.87 895.898 1383.92 852.525 1403.27 849.798C1440.12 844.603 1478.23 844.214 1502.18 877.007C1523.97 906.831 1524.07 960.158 1491.96 983.949C1471.76 998.915 1459.34 985.036 1454.89 963.965C1450.6 943.606 1445.57 917.087 1449.95 896.382C1456.3 866.425 1496.4 858.907 1520.91 853.489C1605.79 834.723 1712.81 827.715 1797.46 853.805C1853.79 871.17 1797.57 961.911 1775.19 984.187C1703.69 1055.35 1574.53 1022.42 1490.4 998.965C1430.78 982.346 1372.89 959.206 1318.33 929.996C1303.13 921.857 1281.64 912.006 1268.78 899.539C1259.51 890.55 1264.41 870.95 1259.94 859.45C1250.9 836.139 1181.81 889.042 1175.37 892.483C1066.05 950.924 941.517 979.218 818.822 991.631C803.323 993.199 778.723 999.379 770.449 981.126C762.775 964.195 762.108 941.616 760.946 923.416C758.377 883.197 767.843 856.241 803.559 835.341C835.637 816.57 892.27 793.964 928.054 816.211C954.396 832.587 964.208 886.575 962.98 914.666C961.986 937.419 941.87 942.773 922.589 945.069C919.7 945.413 914.738 946.014 920.017 941.549C941.949 922.994 973.522 914.658 1000.76 908.493C1053.8 896.486 1143.89 872.348 1178.81 929.388C1194.48 954.981 1214.03 1000.11 1208.62 1031.08C1206.32 1044.24 1170.62 1083.35 1157.65 1062.99C1132.62 1023.7 1141.57 964.877 1175.96 933.555C1219.39 893.997 1300.42 888.284 1354.63 879.27C1418.82 868.596 1485.45 859.946 1550.62 865.977C1596.75 870.245 1604.6 893.461 1604.02 938.791C1603.17 1005.78 1564.29 1059.2 1494.45 1061.15C1481.19 1061.52 1483.57 1049.78 1486.15 1039.65C1495.8 1001.86 1518.69 968.826 1550.63 946.346C1595.18 914.98 1650.53 902.386 1702.96 891.848C1751.29 882.134 1801.3 872.902 1850.68 870.909C1869.02 870.168 1914.15 866.172 1918.94 891.723C1922.72 911.927 1928.32 934.765 1908.62 947.727C1881.13 965.826 1881.23 932.579 1878.43 911.137C1877.08 900.696 1859.32 826.071 1877.48 822.749C1897.39 819.107 1929.04 810.624 1948.55 815.003C1956.74 816.841 1937.34 829.983 1936.74 830.283C1916.43 840.472 1889.13 842.12 1867.15 840.483C1817.35 836.773 1736.21 815.473 1716.21 762.062C1708.84 742.393 1706.3 713.094 1707.9 692.251C1709.97 665.251 1720.07 653.083 1741.94 638.683C1759.64 627.034 1770.63 603.488 1790.07 594.92C1829.12 577.712 1882.06 581.944 1924.64 576.025C1935.27 574.547 1941.27 569.523 1950.31 564.597C1956.07 561.458 1939.13 571.67 1934.48 576.289C1916.34 594.277 1900.87 615.898 1886.96 637.202C1874.31 656.554 1863.97 676.466 1854.93 697.704C1851.19 706.51 1843.73 730.666 1839.65 722.009C1835.66 713.536 1848.33 701.743 1853.24 695.514C1856.27 691.656 1879.82 669.868 1872.41 675.769C1859.33 686.197 1840.04 716.973 1820.32 712.35C1791.1 705.503 1786.79 645.308 1783.84 622.931C1778.49 582.414 1771.5 546.817 1812.06 522.457C1840.52 505.361 1891.49 483.178 1926.11 485.913C1936.57 486.74 1937.89 506.56 1935.84 489.299C1932.12 458.053 1927.6 435.417 1947.88 409.649" stroke="#A81A1A" stroke-width="25" stroke-linecap="round" stroke-linejoin="round"/>
</svg>
