<svg width="2189" height="1295" viewBox="0 0 2189 1295" fill="none" xmlns="http://www.w3.org/2000/svg">
<path d="M1816.21 406.397C1853.02 308.788 2039.09 225.821 2127.52 196.538C2173.54 570.705 2237.96 1311.72 2127.52 1282.43C1989.46 1245.83 1946.14 1184.83 1829.74 1082.34C1713.34 979.848 1770.19 528.408 1816.21 406.397Z" fill="#FFB1A0"/>
<path d="M1663.22 659.207C1671.36 534.881 1753.23 582.642 1793.14 622.063C1800.65 698.9 1809.11 861.918 1782.91 899.297C1756.7 936.676 1730.43 919.994 1720.56 906.981C1698.06 876.192 1655.08 783.532 1663.22 659.207Z" fill="#FFB1A0"/>
<path d="M1764.36 759.267C1765.47 757.403 1764.82 754.946 1762.9 753.78C1760.98 752.614 1758.52 753.179 1757.41 755.043L1764.36 759.267ZM1759.36 805.674L1762.92 803.962L1759.36 805.674ZM1728.19 809.129C1727.75 806.96 1725.63 805.497 1723.46 805.861C1721.28 806.224 1719.87 808.277 1720.31 810.446L1728.19 809.129ZM1757.41 755.043C1752.3 763.601 1744.75 785.922 1755.79 807.386L1762.92 803.962C1753.64 785.913 1759.99 766.591 1764.36 759.267L1757.41 755.043ZM1755.79 807.386C1758.46 812.578 1758.02 816.318 1756.57 818.819C1755.03 821.475 1751.94 823.467 1748.01 824.133C1744.11 824.793 1739.78 824.068 1736.15 821.746C1732.61 819.475 1729.49 815.504 1728.19 809.129L1720.31 810.446C1722.02 818.826 1726.36 824.805 1731.95 828.388C1737.46 831.92 1743.9 832.953 1749.62 831.983C1755.31 831.019 1760.66 827.993 1763.57 822.952C1766.58 817.755 1766.6 811.118 1762.92 803.962L1755.79 807.386Z" fill="#EE8C76"/>
<path d="M1765.77 643.021C1731.39 613.791 1669.25 591.923 1695.76 738.299" stroke="#EE8C76" stroke-width="8" stroke-linecap="round" stroke-linejoin="round"/>
<path d="M75.5029 637.993C109.161 695.844 158.096 764.128 225.469 785.581C267.136 798.849 305.65 805.784 349.257 805.561C375.526 805.426 405.772 795.33 425.221 777.096C450.637 753.268 474.94 726.088 490.896 694.957C513.468 650.918 540.79 626.318 585.406 601.544C601.915 592.377 629.564 595.285 647.315 595.205C683.137 595.046 731.044 592.222 760.867 616.154C788.434 638.275 804.993 676.754 813.866 709.988C820.401 734.465 817.287 778.13 847.971 788.475C862.236 793.284 887.744 789.128 899.795 787.162C941.047 780.431 984.111 771.333 1023.02 755.641C1053.55 743.331 1055.56 696.41 1058.87 668.484C1062.21 640.148 1063.68 595.914 1032.83 581.22C1007.73 569.265 893.49 521.91 882.521 564.419C867.902 621.072 896.229 690.664 935.436 731.222C973.54 770.64 1032.24 772.908 1082.93 780.431C1120.6 786.02 1172.61 781.535 1198.09 815.147C1236 865.134 1239.05 916.282 1221.36 975.754C1188.68 1085.66 1020.1 1027.75 978.209 955.863C968.16 938.619 952.714 900.148 973.038 885.473C1016.2 854.311 1066.82 829.43 1116.93 812.127C1130.77 807.347 1163.25 790.715 1128.51 786.578C1079.79 780.774 990.951 775.626 953.536 815.19C882.892 889.893 1180.11 963.544 1159.26 1053.23C1126.88 1192.53 940.833 1188.17 845.603 1117.92C803.909 1087.17 785.519 1047.48 764.648 1002.44C753.021 977.352 737.255 942.559 707.888 934.41C683.874 927.747 659.153 970.081 651.546 986.202C636.013 1019.12 637.027 1079.74 662.872 1108.39C687.548 1135.74 751.467 1119.09 776.744 1102.37C819.934 1073.82 817.24 992.249 794.685 951.241C772.218 910.395 711.166 891.511 670.192 876.916C653.743 871.056 636.108 876.091 621.778 885.835C605.061 897.202 598.776 923.266 613.773 939.179C659.908 988.131 767.999 921.312 786.358 871.674C798.871 837.844 760.428 785.157 738.419 762.729C717.827 741.744 679.585 753.306 656.862 765.896C645.474 772.205 645.858 789.809 655.356 797.708C704.688 838.734 792.46 852.271 853.72 850.288C951.005 847.14 1005.08 770.268 1039.14 688.284C1062.08 633.064 1077.21 598.005 1146.56 592.318C1244.86 584.257 1387.61 606.368 1398.77 731.005C1405.39 805.027 1376.08 865.891 1299.41 869.402C1242.93 871.989 1221.9 841.99 1212.74 786.866C1208.14 759.202 1203.9 731.02 1224.34 707.49C1257.13 669.749 1332.48 662.353 1377.78 658.668C1461.56 651.855 1500.27 689.216 1558.82 741.113C1572.44 753.182 1604.15 771.272 1600.98 794.691C1598.81 810.733 1589.48 827.998 1585 843.724C1570.82 893.585 1494.14 919.756 1452.58 939.687C1399.78 965.009 1345.27 981.236 1286.13 971.691C1212.76 959.849 1144.71 924.97 1071.3 911.212C1061.66 909.405 1042.27 901.303 1041.88 911.101C1041.29 926.285 1047.67 944.591 1052.37 958.558C1068.3 1005.9 1101.65 1022.9 1147.16 1042C1200.03 1064.19 1272.24 1091 1330.49 1071.59C1367.63 1059.22 1372.32 1033.44 1366.86 998.632C1354.68 920.982 1270.83 870.795 1206.58 837.484C1194.44 831.188 1157.83 815.392 1167.45 825.12C1191.85 849.795 1222.55 869.171 1250.7 888.958C1283.46 911.994 1325.01 930.929 1345.33 967.134C1354.49 983.435 1373.74 1012.18 1361.7 1031.87C1341.16 1065.47 1272.6 1063.59 1241.38 1064.06C1142.06 1065.56 1019.7 1034.63 952.487 955.34C931.404 930.47 929.827 907.488 939.027 876.355C960.024 805.298 1060.6 788.955 1122.95 773.583C1215.98 750.646 1313.09 750.242 1374.76 663.625C1392.29 639.012 1369.58 628.424 1348.45 618.048C1331.3 609.626 1278.17 589.166 1294.17 599.61C1339.94 629.48 1414.08 600.81 1458.35 584.174C1499.59 568.677 1521.63 547.924 1525.15 503.828C1526.7 484.331 1536.36 450.212 1526.94 432.749C1518.01 416.174 1494.03 409.137 1480.56 396.634C1475.24 391.702 1471.83 411.559 1471.32 413.892C1458.08 474.356 1558.48 498.097 1598.67 471.745C1628.31 452.312 1657.81 431.667 1677.89 401.871C1695.29 376.062 1689.92 359.628 1680.48 332.129C1671.23 305.209 1647.25 298.165 1623.69 284.255C1583.27 260.396 1551.52 227.331 1502.81 232.488C1478.62 235.05 1427.28 231.213 1409.2 251.652C1383.07 281.184 1395.52 314.487 1411.64 345.189C1448.99 416.313 1487.13 545.053 1369.79 568.268C1349.44 572.294 1318.15 568.985 1299.04 566.929C1260.68 562.801 1212.07 561.505 1176.1 545.473C1133.87 526.658 1099.76 464.775 1082.09 424.658C1070.16 397.558 1053.95 362.179 1089.12 347.367C1124.65 332.404 1185.64 315.233 1223.71 330.382C1262.8 345.934 1317 379.955 1316.65 427.839C1316.51 447.428 1303.2 467.148 1287.92 478.443C1268.65 492.686 1234.65 491.551 1219.77 510.99C1178.06 565.47 1264.62 629.308 1309.02 637.49C1335 642.278 1366.15 635.903 1391.34 629.608C1411.02 624.69 1411.55 609.714 1424.06 596.784C1448.73 571.277 1497.74 589.801 1522.53 605.016C1543 617.588 1546.26 631.6 1542.61 654.224C1536.98 689.118 1527.24 728.607 1563.55 749.335C1589.79 764.321 1615.62 774.07 1645.86 778.951C1672.54 783.257 1699.18 879.289 1743.71 817.727" stroke="#A81A1A" stroke-width="25" stroke-linecap="round" stroke-linejoin="round"/>
</svg>
