<svg width="1440" height="1295" viewBox="0 0 1440 1295" fill="none" xmlns="http://www.w3.org/2000/svg">
<path d="M1391.21 406.397C1428.02 308.788 1614.09 225.821 1702.52 196.538C1748.54 570.705 1812.96 1311.72 1702.52 1282.43C1564.46 1245.83 1521.14 1184.83 1404.74 1082.34C1288.34 979.848 1345.19 528.408 1391.21 406.397Z" fill="#FFB1A0"/>
<path d="M1238.22 659.207C1246.36 534.881 1328.23 582.642 1368.14 622.063C1375.65 698.9 1384.11 861.918 1357.91 899.297C1331.7 936.676 1305.43 919.994 1295.56 906.981C1273.06 876.192 1230.08 783.532 1238.22 659.207Z" fill="#FFB1A0"/>
<path d="M1339.36 759.267C1340.47 757.403 1339.82 754.946 1337.9 753.78C1335.98 752.614 1333.52 753.179 1332.41 755.043L1339.36 759.267ZM1334.36 805.674L1337.92 803.962L1334.36 805.674ZM1303.19 809.129C1302.75 806.96 1300.63 805.497 1298.46 805.861C1296.28 806.224 1294.87 808.277 1295.31 810.446L1303.19 809.129ZM1332.41 755.043C1327.3 763.601 1319.75 785.922 1330.79 807.386L1337.92 803.962C1328.64 785.913 1334.99 766.591 1339.36 759.267L1332.41 755.043ZM1330.79 807.386C1333.46 812.578 1333.02 816.318 1331.57 818.819C1330.03 821.475 1326.94 823.467 1323.01 824.133C1319.11 824.793 1314.78 824.068 1311.15 821.746C1307.61 819.475 1304.49 815.504 1303.19 809.129L1295.31 810.446C1297.02 818.826 1301.36 824.805 1306.95 828.388C1312.46 831.92 1318.9 832.953 1324.62 831.983C1330.31 831.019 1335.66 827.993 1338.57 822.952C1341.58 817.755 1341.6 811.118 1337.92 803.962L1330.79 807.386Z" fill="#EE8C76"/>
<path d="M1340.77 643.021C1306.39 613.791 1244.25 591.923 1270.76 738.299" stroke="#EE8C76" stroke-width="8" stroke-linecap="round" stroke-linejoin="round"/>
<path d="M-349.497 637.993C-315.839 695.844 -266.904 764.128 -199.531 785.581C-157.864 798.849 -119.35 805.784 -75.7429 805.561C-49.4736 805.426 -19.2277 795.33 0.220514 777.096C25.6366 753.268 49.9399 726.088 65.896 694.957C88.4681 650.918 115.79 626.318 160.406 601.544C176.915 592.377 204.564 595.285 222.315 595.205C258.137 595.046 306.044 592.222 335.867 616.154C363.434 638.275 379.993 676.754 388.866 709.988C395.401 734.465 392.287 778.13 422.971 788.475C437.236 793.284 462.744 789.128 474.795 787.162C516.047 780.431 559.111 771.333 598.025 755.641C628.551 743.331 630.565 696.41 633.865 668.484C637.214 640.148 638.678 595.914 607.83 581.22C582.733 569.265 468.49 521.91 457.521 564.419C442.902 621.072 471.229 690.664 510.436 731.222C548.54 770.64 607.237 772.908 657.933 780.431C695.601 786.02 747.607 781.535 773.094 815.147C810.999 865.134 814.051 916.282 796.364 975.754C763.677 1085.66 595.104 1027.75 553.209 955.863C543.16 938.619 527.714 900.148 548.038 885.473C591.196 854.311 641.816 829.43 691.93 812.127C705.774 807.347 738.249 790.715 703.513 786.578C654.788 780.774 565.951 775.626 528.536 815.19C457.892 889.893 755.112 963.544 734.264 1053.23C701.882 1192.53 515.833 1188.17 420.603 1117.92C378.909 1087.17 360.519 1047.48 339.648 1002.44C328.021 977.352 312.255 942.559 282.888 934.41C258.874 927.747 234.153 970.081 226.546 986.202C211.013 1019.12 212.027 1079.74 237.872 1108.39C262.548 1135.74 326.467 1119.09 351.744 1102.37C394.934 1073.82 392.24 992.249 369.685 951.241C347.218 910.395 286.166 891.511 245.192 876.916C228.743 871.056 211.108 876.091 196.778 885.835C180.061 897.202 173.776 923.266 188.773 939.179C234.908 988.131 342.999 921.312 361.358 871.674C373.871 837.844 335.428 785.157 313.419 762.729C292.827 741.744 254.585 753.306 231.862 765.896C220.474 772.205 220.858 789.809 230.356 797.708C279.688 838.734 367.46 852.271 428.72 850.288C526.005 847.14 580.077 770.268 614.138 688.284C637.079 633.064 652.206 598.005 721.56 592.318C819.861 584.257 962.615 606.368 973.766 731.005C980.389 805.027 951.079 865.891 874.415 869.402C817.929 871.989 796.895 841.99 787.738 786.866C783.143 759.202 778.895 731.02 799.34 707.49C832.133 669.749 907.481 662.353 952.781 658.668C1036.56 651.855 1075.27 689.216 1133.82 741.113C1147.44 753.182 1179.15 771.272 1175.98 794.691C1173.81 810.733 1164.48 827.998 1160 843.724C1145.82 893.585 1069.14 919.756 1027.58 939.687C974.782 965.009 920.27 981.236 861.131 971.691C787.758 959.849 719.706 924.97 646.301 911.212C636.663 909.405 617.27 901.303 616.884 911.101C616.285 926.285 622.668 944.591 627.369 958.558C643.304 1005.9 676.648 1022.9 722.165 1042C775.031 1064.19 847.245 1091 905.49 1071.59C942.629 1059.22 947.321 1033.44 941.862 998.632C929.681 920.982 845.835 870.795 781.585 837.484C769.44 831.188 732.834 815.392 742.452 825.12C766.849 849.795 797.553 869.171 825.695 888.958C858.459 911.994 900.006 930.929 920.333 967.134C929.485 983.435 948.738 1012.18 936.698 1031.87C916.156 1065.47 847.605 1063.59 816.384 1064.06C717.061 1065.56 594.703 1034.63 527.487 955.34C506.404 930.47 504.827 907.488 514.027 876.355C535.024 805.298 635.603 788.955 697.949 773.583C790.975 750.646 888.094 750.242 949.763 663.625C967.287 639.012 944.583 628.424 923.451 618.048C906.298 609.626 853.168 589.166 869.17 599.61C914.936 629.48 989.083 600.81 1033.35 584.174C1074.59 568.677 1096.63 547.924 1100.15 503.828C1101.7 484.331 1111.36 450.212 1101.94 432.749C1093.01 416.174 1069.03 409.137 1055.56 396.634C1050.24 391.702 1046.83 411.559 1046.32 413.892C1033.08 474.356 1133.48 498.097 1173.67 471.745C1203.31 452.312 1232.81 431.667 1252.89 401.871C1270.29 376.062 1264.92 359.628 1255.48 332.129C1246.23 305.209 1222.25 298.165 1198.69 284.255C1158.27 260.396 1126.52 227.331 1077.81 232.488C1053.62 235.05 1002.28 231.213 984.2 251.652C958.069 281.184 970.523 314.487 986.643 345.189C1023.99 416.313 1062.13 545.053 944.791 568.268C924.442 572.294 893.146 568.985 874.041 566.929C835.684 562.801 787.072 561.505 751.096 545.473C708.873 526.658 674.757 464.775 657.09 424.658C645.156 397.558 628.948 362.179 664.122 347.367C699.654 332.404 760.643 315.233 798.715 330.382C837.802 345.934 892.005 379.955 891.652 427.839C891.507 447.428 878.202 467.148 862.92 478.443C843.649 492.686 809.648 491.551 794.766 510.99C753.057 565.47 839.62 629.308 884.023 637.49C910.003 642.278 941.15 635.903 966.342 629.608C986.022 624.69 986.553 609.714 999.059 596.784C1023.73 571.277 1072.74 589.801 1097.53 605.016C1118 617.588 1121.26 631.6 1117.61 654.224C1111.98 689.118 1102.24 728.607 1138.55 749.335C1164.79 764.321 1190.62 774.07 1220.86 778.951C1247.54 783.257 1274.18 879.289 1318.71 817.727" stroke="#A81A1A" stroke-width="25" stroke-linecap="round" stroke-linejoin="round"/>
</svg>
