<svg width="1658" height="740" viewBox="0 0 1658 740" fill="none" xmlns="http://www.w3.org/2000/svg">
<path d="M137 391C149.711 379.657 184.819 391 226 362.372C297 313.014 324.205 388.332 353.518 362.372C366.01 351.308 377.544 274.817 391.979 266.276C433.512 241.701 435.042 228.304 482.92 224.232C525.452 220.615 568.252 247.577 606.745 263.45C673.942 291.16 750.479 274.441 811.206 241.102C863.711 212.276 954.894 224.043 991.747 273.88C1012.06 301.346 1040.34 303.987 1072.85 297.941C1090.27 294.702 1110.09 291.02 1125.89 282.61C1135.6 277.439 1144.89 269.879 1155.79 267.272C1199.52 256.814 1281.06 266.749 1290.32 321.225C1292.1 331.707 1290.72 349.058 1296.43 358.171C1304.01 370.26 1330.91 368.537 1342.65 366.906C1368.97 363.248 1397.87 348.731 1412.89 326.213C1426.96 305.116 1449.5 261.355 1406.74 259.366C1382.12 258.221 1391.56 337.397 1393.71 348.102C1400.27 380.673 1437.65 406.158 1429.17 443.008C1416.88 496.383 1321.19 506.737 1278.84 499.197C1268.04 497.274 1200.47 483.858 1207.98 461.552C1218.95 428.97 1269.06 430.569 1293.23 442.381C1325.99 458.396 1339.1 490.743 1309.21 519.652C1258.43 568.766 1180.31 551.995 1118.36 536.404C1044.12 517.724 971.514 492.975 897.378 473.803C872.843 467.458 850.2 467.796 824.53 467.39C803.142 467.052 771.301 460.864 749.914 468.369C713.566 481.125 657.281 532.483 663.104 574.674C668.698 615.209 703.376 616.223 738.252 619.637C764.016 622.158 792.714 629.72 813.731 611.579C832.2 595.636 852.897 575.614 864.471 553.784C885.664 513.813 847.944 488.705 814.982 473.709C767.374 452.049 715.294 452.196 664.259 457.978C634.302 461.373 612.735 464.605 592.77 487.4C570.805 512.479 547.445 542.284 516.759 556.656C493.032 567.768 464.746 570.721 438.839 567.448C406.63 563.379 394.647 545.706 384.055 517.026C379.048 503.468 372.919 493.71 381.986 481.157C396.321 461.311 419.535 442.062 443.233 434.707C490.675 419.984 557.197 448.202 560.408 502.091C563.491 553.833 521.809 571.976 491.521 605.67C477.316 621.473 466.607 636.09 477.777 656.287C494.309 686.181 560.08 673.335 585.948 664.699C627.365 650.872 653.886 628.642 700.05 629.784C758.348 631.227 807.585 650.771 867.032 636.482C908.961 626.403 933.171 603.019 964.177 575.862C987.07 555.81 1021.36 560.146 1048.58 567.329C1079.75 575.556 1085.43 581.925 1107.78 603.185C1133.74 627.893 1168.69 634.134 1203.35 633.614C1275.65 632.531 1334.78 576.5 1300.07 505.701C1282.29 469.446 1249.92 462.861 1210.78 458.657C1163.35 453.562 1118.36 438.245 1082.46 405.171C1054.04 378.998 1094.36 356.935 1113.57 348.421C1138.8 337.239 1159.71 335.323 1187.09 336.712C1212.94 338.025 1251.21 336.054 1271.65 355.239C1296.73 378.768 1305.98 414.574 1328.94 439.77C1352.7 465.851 1382.43 469.31 1415.77 470.86C1450.77 472.488 1459.22 464.027 1485.67 444.924C1503.37 432.143 1556.58 449.51 1573.51 454.348C1604.23 463.126 1606.63 485.904 1633.05 496.782" stroke="#A81A1A" stroke-width="25" stroke-linecap="round" stroke-linejoin="round"/>
<path d="M315.469 149.973C299.705 156.03 340.992 229.85 351.502 238.85L148.6 372.852L321.099 500.349C316.971 501.099 309.389 507.324 312.091 526.225C315.469 549.85 331.857 563.181 333.321 629.78C335.382 723.563 206.982 692.876 180.207 739.054L1 730.719L13.4936 462.079L21.995 279.275L34.9363 1.00007L214.145 9.33416L395.45 17.7663C402.571 47.6296 404.451 38.2279 410.054 67.8455C415.658 97.4632 399.138 111.048 381.843 121.061C364.548 131.073 330.107 144.347 315.469 149.973Z" fill="#FFB1A0" stroke="#FFB1A0"/>
<path d="M360.356 238.213C380.022 301.29 334.483 304.242 311.984 311.758C278.84 322.225 185.666 355.726 151.31 372.384C205.846 380.047 316.796 421.279 333.358 458.309C348.734 492.688 323.609 503.408 311.984 503.408C286.017 496.359 236.05 455.589 195.02 420.55L151.31 372.384L199.066 333.549C260.673 271.611 349.222 202.501 360.356 238.213Z" fill="#EE8C76"/>
<path d="M151.31 372.384C185.666 355.726 278.84 322.225 311.984 311.758C334.483 304.242 380.022 301.29 360.356 238.213C349.222 202.501 260.673 271.611 199.066 333.549L151.31 372.384ZM151.31 372.384C205.846 380.047 316.796 421.279 333.358 458.309C348.734 492.688 323.609 503.408 311.984 503.408C286.017 496.359 236.05 455.589 195.02 420.55L151.31 372.384Z" stroke="#EE8C76"/>
</svg>
