<svg width="416" height="255" viewBox="0 0 416 255" fill="none" xmlns="http://www.w3.org/2000/svg">
<path d="M83.367 236.011C65.894 224.804 47.3606 214.521 30.9226 201.789C20.1626 193.455 4.87339 183.138 4.03367 168.233C3.58592 160.286 7.52914 124.011 20.367 124.011C34.6387 124.011 33.367 139.95 33.367 151.011C33.367 166.07 32.1472 184.011 13.367 184.011C2.25117 184.011 7.367 148.219 7.367 140.678C7.367 129.967 9.99698 128.894 19.367 124.456C31.1093 118.893 48.6823 124.864 54.2559 136.011C58.6028 144.705 66.766 174.189 51.367 175.9C44.9732 176.61 39.367 172.303 39.367 165.9C39.367 147.454 55.2073 142.767 71.7003 139.344C85.9549 136.386 95.3102 138.087 104.811 150.122C112.097 159.351 111.915 177.221 102.7 184.9C87.1688 197.843 56.1795 200.581 57.367 174.456C58.0056 160.407 76.7227 164.011 86.4781 164.011C101.303 164.011 113.139 192.34 116.034 204.456C118.362 214.199 118.78 224.375 111.367 231.789C109.098 234.058 97.139 245.397 104.145 248.9C111.725 252.69 126.763 250.086 134.7 250.011C159.815 249.774 183.936 250.699 199.034 227.122C210.259 209.592 219.153 177.708 202.367 160.456C177.447 134.843 147.612 130.084 118.256 112.9C93.2702 98.2742 69.9597 79.9009 45.367 64.4555C33.2188 56.8259 34.808 51.8416 39.1448 38.2333C45.7189 17.6043 57.3486 6.65961 79.1448 4.45551C108.288 1.5084 134.837 12.6187 140.478 44.9C143.925 64.626 135.875 85.4836 147.811 102.011C151.614 107.276 175.288 106.206 181.034 106.9C199.477 109.126 221.14 103.209 228.7 83.6777C230.785 78.2933 229.436 70.3412 224.256 67.2333C212.148 59.9684 201.548 70.7129 193.923 78.0111C183.15 88.3217 168.437 96.9604 159.923 109.344C155.3 116.069 157.367 127.469 157.367 135.122C157.367 146.999 158.275 157.297 168.256 165.567C177.796 173.471 185.895 194.637 180.923 207.567C179.168 212.129 170.782 216.011 166.256 216.011C154.404 216.011 150.544 214.654 148.256 202.233C146.626 193.386 142.318 180.341 145.589 171.344C148.095 164.452 176.063 162.269 183.256 159.122C200.587 151.54 218.398 160.073 226.256 175.789C229.716 182.709 230.409 191.41 239.478 193.678C254.946 197.545 264.44 181.548 268.145 168.789C268.918 166.124 272.168 147.249 266.478 148.456C255.712 150.739 255.367 157.547 255.367 167.122C255.367 177.27 255.367 187.418 255.367 197.567C255.367 209.828 296.197 198.86 302.478 194.456C319.866 182.261 316.841 221.217 317.256 231.789C317.637 241.515 313.069 237.915 307.367 232.678C296.443 222.643 288.118 209.657 281.811 196.344C270.803 173.105 271.246 158.587 299.589 153.233C310.006 151.266 326.09 145.142 335.589 152.456C346.708 161.016 355.055 175.385 357.034 189.233C359.987 209.908 334.344 200.619 323.811 192.9C312.002 184.245 287.203 152.646 312.256 143.789C327.622 138.356 335.091 142.576 335.367 158.011C335.397 159.671 332.668 184.602 326.256 177.122C322.923 173.233 322.712 161.801 321.367 156.9C318.909 147.944 316.994 138.906 317.811 129.567C318.766 118.657 321.073 115.373 329.367 108.9C335.542 104.08 346.921 105.472 354.256 103.789C361.207 102.193 368.229 98.6317 375.367 98.0111C387.354 96.9687 399.554 98.436 411.367 100.011" stroke="#891515" stroke-width="8" stroke-linecap="round" stroke-linejoin="round"/>
</svg>
