<svg width="468" height="288" viewBox="0 0 468 288" fill="none" xmlns="http://www.w3.org/2000/svg">
<path d="M94.2318 266.18C74.587 253.564 53.7501 241.988 35.2689 227.655C23.1715 218.273 5.98195 206.66 5.03785 189.881C4.53445 180.934 8.96779 140.099 23.4013 140.099C39.4468 140.099 38.0171 158.042 38.0171 170.494C38.0171 187.445 36.6457 207.642 15.5313 207.642C3.0338 207.642 8.7855 167.351 8.7855 158.861C8.7855 146.804 11.7424 145.596 22.277 140.599C35.4788 134.338 55.2361 141.059 61.5024 153.608C66.3895 163.394 75.5673 196.585 58.2544 198.511C51.0659 199.311 44.7629 194.463 44.7629 187.254C44.7629 166.49 62.5721 161.214 81.115 157.36C97.1413 154.03 107.659 155.945 118.342 169.493C126.533 179.882 126.328 199.999 115.968 208.643C98.5061 223.213 63.6651 226.295 65.0002 196.885C65.7181 181.071 86.7616 185.128 97.7296 185.128C114.397 185.128 127.704 217.018 130.959 230.657C133.576 241.625 134.047 253.081 125.712 261.427C123.161 263.981 109.716 276.746 117.592 280.689C126.114 284.956 143.022 282.024 151.946 281.94C180.182 281.673 207.301 282.714 224.275 256.173C236.896 236.44 246.895 200.547 228.023 181.125C200.005 152.293 166.462 146.935 133.457 127.591C105.366 111.126 79.158 90.4433 51.5086 73.0561C37.8506 64.4672 39.6373 58.8564 44.513 43.5371C51.9042 20.3146 64.9795 7.99398 89.4848 5.51278C122.251 2.19515 152.099 14.7022 158.441 51.042C162.317 73.248 153.266 96.7279 166.686 115.333C170.961 121.26 197.578 120.056 204.038 120.837C224.773 123.342 249.129 116.682 257.629 94.6949C259.972 88.6336 258.456 79.6817 252.632 76.1831C239.019 68.0048 227.101 80.1001 218.529 88.3158C206.417 99.9227 189.875 109.647 180.303 123.588C175.105 131.158 177.429 143.992 177.429 152.607C177.429 165.977 178.451 177.57 189.672 186.879C200.398 195.777 209.504 219.604 203.913 234.159C201.94 239.295 192.512 243.665 187.423 243.665C174.098 243.665 169.758 242.137 167.186 228.155C165.354 218.196 160.51 203.511 164.188 193.383C167.006 185.625 198.449 183.167 206.536 179.624C226.021 171.089 246.046 180.695 254.881 198.386C258.771 206.176 259.55 215.972 269.746 218.524C287.137 222.877 297.812 204.87 301.976 190.506C302.846 187.506 306.499 166.258 300.102 167.617C287.999 170.187 287.61 177.851 287.61 188.63C287.61 200.054 287.61 211.478 287.61 222.902C287.61 236.705 333.515 224.358 340.577 219.4C360.126 205.672 356.725 249.526 357.192 261.427C357.62 272.376 352.484 268.323 346.073 262.427C333.792 251.131 324.431 236.513 317.342 221.526C304.965 195.365 305.462 179.022 337.329 172.995C349.04 170.78 367.124 163.887 377.804 172.12C390.305 181.757 399.689 197.932 401.913 213.521C405.234 236.795 376.404 226.338 364.562 217.649C351.284 207.905 323.403 172.334 351.57 162.363C368.846 156.248 377.244 160.998 377.554 178.374C377.587 180.242 374.519 208.308 367.31 199.887C363.563 195.51 363.326 182.639 361.814 177.123C359.05 167.041 356.897 156.867 357.816 146.353C358.889 134.072 361.483 130.375 370.808 123.088C377.751 117.662 390.544 119.229 398.79 117.334C406.606 115.538 414.501 111.529 422.525 110.83C436.002 109.657 449.719 111.309 463 113.082" stroke="#A81A1A" stroke-width="9" stroke-linecap="round" stroke-linejoin="round"/>
</svg>
