<svg width="777" height="674" viewBox="0 0 777 674" fill="none" xmlns="http://www.w3.org/2000/svg">
<path d="M580.065 7.00004C594.294 31.6443 577.655 54.4583 557.824 69.4704C548.243 76.7231 536.429 81.4937 526.199 87.8082C515.575 94.3657 518.991 104.325 512.985 112.48C500.869 128.931 472.221 124.653 455.576 134.263C450.896 136.965 446.447 138.175 442.124 141.714C437.921 145.156 435.988 150.287 432.536 154.351C421.47 167.378 405.608 180.108 390.015 187.027C381.187 190.944 372.367 186.059 363.088 188.766C351.901 192.03 347.345 195.638 340.855 205.468C335.413 213.71 327.963 219.492 319.36 224.27C315.838 226.226 310.814 225.781 306.874 225.876C302.602 225.98 300.834 229.08 297.834 232.358C292.865 237.785 290.115 239.734 283.949 243.294C274.805 248.573 274.293 257.781 273.08 267.243C270.194 289.756 263.594 315.463 247.987 332.701C242.182 339.113 234.769 346.96 227.245 351.304C225.156 352.511 222.84 350.602 221.649 348.854C218.403 344.09 222.342 338.459 224.916 334.423C238.879 312.527 278.476 318.197 299.492 321.191C322.083 324.409 340.556 315.703 358.321 302.139C366.852 295.625 377.207 279.755 367.653 269.924C356.926 258.887 329.013 281.389 325.059 291.676C321.997 299.64 320.303 316.044 329.066 321.712C341.208 329.566 358.496 323.795 371.688 323.378C384.094 322.986 401.864 322.884 413.182 328.694C428.805 336.713 428.168 354.311 415.552 364.094C403.99 373.061 360.883 401.709 350.441 376.911C345.944 366.232 348.733 353.223 350.899 342.719C354.57 324.911 360.676 309.853 372.651 296.074C386.104 280.597 402.387 267.766 416.277 252.74C423.24 245.207 429.289 227.562 424.529 217.835C419.927 208.43 402.997 207.559 394.546 211.001C390.452 212.669 376.664 220.173 391.254 215.821C410.138 210.189 428.223 202.197 447.098 196.52C459.954 192.653 473.397 190.729 486.452 187.606C492.89 186.067 494.415 185.589 499.85 188.945C501.395 189.9 507.282 191.127 506.596 192.704C497.827 212.872 503.294 230.668 520.34 245.208C532.287 255.398 564.763 263.033 565.308 280.867C565.647 291.931 559.929 302.852 551.001 309.248C527.145 326.338 492.201 330.238 469.45 309.306C441.204 283.318 498.53 257.918 519.558 263.806C527.871 266.134 539.618 277.946 543.841 284.819C555.974 304.57 528.728 331.383 516.092 343.763C503.458 356.14 488.741 362.636 472.273 368.588C451.912 375.947 449.756 376.059 428.93 383.986C415.078 389.258 401.14 397.495 386.817 401.515C371.98 405.679 355.259 404.652 339.99 405.274C327.612 405.779 317.114 411.677 305.927 416.656C291.459 423.095 273.126 430.021 266.629 445.894C260.169 461.672 260.412 487.561 267.883 503.004C284.291 536.924 329.939 518.817 357.542 528.879C375.527 535.436 347.817 567.365 342.182 575.936C331.145 592.725 321.437 597.019 301.165 597.96C263.525 599.707 199.224 596.482 200.19 543.192C200.606 520.227 213.944 496.59 227.771 478.901C240.4 462.746 255.914 436.472 278.118 433.816C304.288 430.685 336.22 426.047 351.346 452.687C364.405 475.685 346.416 492.714 329.398 506.782C323.457 511.693 308.666 528.081 299.189 525.249C289.652 522.399 279.911 497.855 277.9 517.894C276.623 530.61 276.745 555.683 295.429 548.802C298.135 547.806 284.801 554.705 284.049 555.057C270.776 561.265 256.943 563.482 242.489 565.48C230.392 567.153 218.448 570.171 206.699 565.945C201.591 564.108 189.422 555.608 183.793 557.156C174.835 559.62 167.768 579.279 164.892 587.557C162.778 593.642 163.108 601.038 162.59 607.349" stroke="#891515" stroke-width="9" stroke-linecap="round" stroke-linejoin="round"/>
</svg>
