<svg width="1440" height="1011" viewBox="0 0 1440 1011" fill="none" xmlns="http://www.w3.org/2000/svg">
<path d="M1575.6 11C1575.6 85.0361 1508.43 114.795 1444.22 122.822C1413.2 126.7 1380.38 122.081 1349.11 123C1316.64 123.955 1311.39 150.838 1287.24 161.4C1238.54 182.706 1179.56 135.8 1129.56 135.8C1115.5 135.8 1103.9 132.737 1089.56 135.089C1075.61 137.375 1064.58 146.422 1051.51 151.089C1009.63 166.046 957.334 174.095 913.2 169.4C888.213 166.742 874.695 144.26 850.267 138.289C820.815 131.089 805.857 133.294 778.445 147C755.464 158.49 731.157 161.827 705.556 161.4C695.076 161.225 684.335 153.688 675.333 148.778C665.574 143.454 657.558 148.141 646.533 151.622C628.279 157.387 619.548 158.2 601.022 158.2C573.552 158.2 560.42 178.279 545.378 198.022C509.59 244.994 461.278 294.328 403.689 312.867C382.269 319.762 355.358 327.8 332.756 327.8C326.477 327.8 323.743 320.487 323.333 315C322.217 300.042 338.416 292.48 349.467 286.733C409.412 255.562 491.254 319.849 534.711 353.933C581.424 390.571 634.373 394.985 692.044 387.533C719.741 383.954 763.717 361.667 754.978 327.089C745.166 288.266 653.002 302.656 630.711 320.689C613.452 334.651 588.296 369.408 600.667 393.578C617.808 427.069 664.267 436.555 694.533 452.778C722.996 468.034 763.167 490.919 781.111 518.733C805.88 557.124 781.551 595.944 740.4 601.578C702.685 606.741 568.291 615.212 577.022 545.755C580.783 515.844 603.989 490.161 622.533 469.311C653.971 433.965 687.316 407.977 732.222 392.511C782.666 375.138 836.046 367.41 886.889 351.622C912.376 343.708 948.96 311.822 950.889 283.711C952.754 256.535 915.74 232.549 892.222 229.311C880.83 227.742 840 226.714 878.533 235.889C928.41 247.764 979.553 253.283 1029.47 265.044C1063.46 273.055 1096.26 286.208 1129.73 296.156C1146.24 301.061 1150.3 301.969 1158.18 316.6C1160.42 320.76 1172.09 331.183 1168.49 333.844C1122.5 367.879 1111.66 415.089 1131.16 470.022C1144.82 508.524 1208.06 567.974 1186.09 608.867C1172.46 634.235 1145.37 651.403 1116.93 654.2C1040.95 661.674 957.142 625.003 933.111 548.244C903.276 452.945 1065.48 470.29 1105.2 510.911C1120.9 526.969 1132.01 568.864 1132.58 589.844C1134.22 650.128 1037.95 675.1 993.378 686.555C948.812 698.008 907.202 693.5 862.356 685.489C806.904 675.583 801.902 673.031 744.667 663.8C706.597 657.66 664.478 658.086 626.978 648.511C588.132 638.593 551.791 614.528 516.578 596.067C488.033 581.101 456.707 580.735 425.022 577.4C384.049 573.087 333.733 564.845 298.445 592.155C263.365 619.304 230.235 677.951 226.978 722.467C219.824 820.238 346.229 838.819 395.333 897.4C427.327 935.567 323.357 971.462 299.511 983.444C252.804 1006.91 225.344 1003.96 178.445 979.711C91.3616 934.683 -49.3207 843.769 22.1778 724.955C52.99 673.753 113.789 637.846 167.956 615.978C217.424 596.006 286.558 556.99 340.044 579.889C403.081 606.877 481.062 637.966 480.489 717.667C479.994 786.472 417.311 801.442 360.667 811C340.89 814.337 286.247 832.019 268.578 813.311C250.797 794.484 260.778 726.51 230.178 769.044C210.76 796.035 178.417 852.687 229.467 861.489C236.861 862.764 197.842 860.963 195.689 860.778C157.706 857.5 123.657 844.499 88.489 830.2C59.0581 818.233 28.2211 809.494 7.24452 784.689C-1.8738 773.906 -18.2365 738.923 -32.9333 735.089C-56.322 728.987 -97.8181 764.09 -115.067 779C-127.746 789.96 -136.622 807.054 -146 820.6" stroke="#A81A1A" stroke-width="22" stroke-linecap="round" stroke-linejoin="round"/>
</svg>
