<svg width="414" height="595" viewBox="0 0 414 595" fill="none" xmlns="http://www.w3.org/2000/svg">
<path d="M313.29 112.762C298.789 98.8902 280.468 77.3986 258.256 86.722C248.691 90.7374 233.413 99.107 231.803 110.37C229.348 127.548 228.234 159.6 253.471 158.198C267.392 157.425 264.482 130.017 260.649 121.397C256.553 112.186 199.102 117.312 198.437 119.139C194.141 130.946 188.866 144.043 188.866 156.737C188.866 164.639 198.684 166.315 204.021 170.155C205.683 171.352 205.096 174.277 206.945 174.805C210.339 175.774 213.374 174.415 216.649 176.532C235.788 188.909 243.804 219.007 240.444 240.569C237.52 259.331 228.44 270.74 210.135 276.838C186.888 284.583 174.146 274.088 157.495 258.903C147.664 249.938 111.216 221.347 131.839 207.886C144.618 199.546 159.815 193.005 174.776 189.818C179.474 188.817 179.735 189.146 183.948 192.874C200.917 207.887 217.191 224.45 231.936 241.632C238.945 249.799 254.319 267.66 242.039 278.964C220.947 298.38 177.007 299.846 150.316 300.088C138.228 300.198 124.076 302.089 120.806 287.334C112.416 249.482 135.2 199.961 157.229 170.421C176.058 145.172 186.808 164.101 194.715 183.707C203.198 204.739 213.077 222.832 209.87 246.149C206.125 273.364 171.812 273.72 150.981 272.853C112.441 271.248 84.5372 242.547 59.7905 215.459C52.6222 207.613 45.7466 194.324 33.6032 202.572C17.2377 213.688 3.36617 242.957 5.15595 262.889C6.41649 276.927 23.3472 290.157 33.0714 297.83C55.2593 315.336 79.1238 322.229 106.981 323.072C132.008 323.83 141.011 319.136 141.011 293.18C141.011 290.193 142.286 283.94 138.353 282.817C136.35 282.245 130.544 281.541 129.579 284.146C127.242 290.452 128.431 298.076 126.123 304.738C119.349 324.297 111.574 341.904 110.171 362.929C109.799 368.507 107.722 381.173 113.893 384.85C128.263 393.412 153.559 395.679 169.724 393.884C181.991 392.522 191.507 387.471 201.628 380.997C207.239 377.408 211.17 378.696 214.921 384.319C223.662 397.422 220.555 441.476 203.09 446.097C171.221 454.528 154.515 423.522 154.039 396.01C153.682 375.427 154.456 350.472 165.338 332.239C175.768 314.763 198.31 311.78 217.048 311.78C228.174 311.78 256.327 309.823 265.435 317.625C275.722 326.438 280.637 350.951 283.513 362.796C287.59 379.585 291.437 401.048 284.311 417.665C280.146 427.377 265.977 428.505 256.927 429.755C224.475 434.238 190.25 431.099 159.489 420.19C152.847 417.834 150.753 415.414 150.582 424.175C150.242 441.692 148.376 462.741 157.495 478.513C173.725 506.588 212.72 511.455 242.039 510C261.166 509.051 296.115 503.112 303.187 481.303C312.718 451.91 307.316 419.263 301.326 389.899C296.14 364.477 244.309 363.912 224.492 369.439C207.262 374.245 213.675 415.055 227.151 422.581C249.879 435.275 283.846 433.69 299.332 457.655C315.912 483.313 307.448 538.486 274.74 546.137C253.262 551.161 238.243 536.927 221.833 525.943C214.356 520.938 200.539 515.582 196.576 506.812C187.895 487.599 207.712 479.321 222.897 478.779C251.838 477.746 268.465 478.04 279.791 505.483C286.314 521.286 283.976 537.506 284.577 554.108C285.218 571.851 290.303 583.684 309.302 587.588C332.504 592.356 372.167 591.588 388.662 570.981C399.476 557.471 391.725 520.941 392.782 504.686C393.587 492.324 396.431 479.108 393.58 466.822C386.767 437.456 365.735 411.718 346.124 389.899C333.22 375.542 292.151 322.867 265.701 337.553C261.594 339.834 258.655 341.502 256.395 335.694C248.748 316.041 243.683 298.607 232.468 280.16C207.448 239.005 158.94 191.269 215.586 154.213C234.94 141.552 256.817 150.282 277.133 140.13C295.053 131.175 301.891 102.719 285.906 87.7849C265.644 68.8555 225.594 72.6985 200.83 77.0236C193.668 78.2745 183.604 84.0985 175.839 81.1421C162.602 76.1022 169.724 31.6868 169.724 19.4971C169.724 2.50672 184.624 5.14867 198.437 5.14867C225.991 5.14867 240.174 8.81363 258.256 31.1884C269.572 45.1903 285.495 56.9431 303.187 42.3483C310.206 36.5584 321.152 8.54154 302.522 15.1128C290.188 19.4638 285.303 40.545 284.71 51.5153C283.75 69.2635 285.978 83.3011 304.25 91.7706C322.199 100.09 341.862 105.816 360.48 112.496C370.262 116.006 383.511 118.474 388.529 128.837C395.431 143.094 397.308 158.47 409 170.155" stroke="#891515" stroke-width="9" stroke-linecap="round" stroke-linejoin="round"/>
</svg>
